<svg id="visual" viewBox="0 0 960 540" width="960" height="540" xmlns="http://www.w3.org/2000/svg" xmlns:xlink="http://www.w3.org/1999/xlink" version="1.1"><rect x="0" y="0" width="960" height="540" fill="#f6f6f7"></rect><path d="M0 418L22.8 431C45.7 444 91.3 470 137 478.8C182.7 487.7 228.3 479.3 274 479.5C319.7 479.7 365.3 488.3 411.2 481.2C457 474 503 451 548.8 448.5C594.7 446 640.3 464 686 475.7C731.7 487.3 777.3 492.7 823 497.7C868.7 502.7 914.3 507.3 937.2 509.7L960 512L960 541L937.2 541C914.3 541 868.7 541 823 541C777.3 541 731.7 541 686 541C640.3 541 594.7 541 548.8 541C503 541 457 541 411.2 541C365.3 541 319.7 541 274 541C228.3 541 182.7 541 137 541C91.3 541 45.7 541 22.8 541L0 541Z" fill="#f52669" stroke-linecap="round" stroke-linejoin="miter"></path></svg>